# xmcd CD database file
#
# Track frame offsets:
#	150
#	20602
#	49737
#
# Disc length: 934 seconds
#
# Revision: 2
# Processed by: cddbd v1.5PL3 Copyright (c) Steve Scherf et al.
# Submitted via: CDex 1.51
#
DISCID=1e03a403
DTITLE=木村由姫 - 憂凪〜YU-NAGI〜
DYEAR=2001
DGENRE=JPop
TTITLE0=憂凪〜YU-NAGI〜
TTITLE1=憂凪〜YU-NAGI〜 (Summer in Space MIx)
TTITLE2=憂凪〜YU-NAGI〜 (Instrumental)
EXTD=YEAR: 2001
EXTT0=
EXTT1=
EXTT2=
PLAYORDER=
